<svg xmlns="http://www.w3.org/2000/svg" width="2250" viewBox="0 0 2250 375" height="375" version="1.0"><defs><clipPath id="a"><path d="M 2042 286 L 2139.78125 286 L 2139.78125 315 L 2042 315 Z M 2042 286"/></clipPath><clipPath id="b"><path d="M 663 242.097656 L 756 242.097656 L 756 269 L 663 269 Z M 663 242.097656"/></clipPath></defs><g clip-path="url(#a)"><path fill="#DDDBDA" d="M 2092.636719 313.082031 C 2076.53125 313.082031 2063.566406 313.082031 2050.601562 313.082031 C 2044.710938 313.082031 2040.78125 306.824219 2042.746094 301.34375 C 2043.136719 300.5625 2043.53125 299.78125 2043.921875 298.605469 C 2044.710938 297.039062 2045.496094 295.476562 2046.671875 293.519531 C 2049.03125 288.824219 2052.566406 286.476562 2057.671875 286.476562 C 2078.101562 286.867188 2098.53125 287.648438 2118.957031 288.433594 C 2122.496094 288.433594 2126.421875 288.824219 2129.957031 289.605469 C 2133.886719 290.390625 2136.246094 293.128906 2137.816406 296.648438 C 2139.386719 300.953125 2139.78125 306.039062 2137.421875 309.953125 C 2136.246094 311.910156 2133.496094 314.648438 2131.53125 314.648438 C 2126.03125 315.039062 2120.53125 314.257812 2115.03125 314.257812 C 2105.996094 313.867188 2097.746094 313.476562 2092.636719 313.082031 Z M 2092.636719 313.082031"/></g><g clip-path="url(#b)"><path fill="#DDDBDA" d="M 747.886719 243.042969 C 752.601562 247.738281 753.78125 253.21875 754.960938 258.695312 C 755.746094 263.78125 752.210938 268.085938 747.496094 267.695312 C 741.210938 267.304688 734.53125 267.695312 728.246094 266.519531 C 715.28125 264.5625 702.710938 264.5625 689.746094 267.304688 C 685.421875 268.085938 680.316406 268.476562 675.996094 267.695312 C 672.460938 267.304688 668.921875 265.347656 666.171875 263.390625 C 661.851562 260.652344 662.636719 251.261719 667.351562 249.304688 C 669.710938 248.128906 672.460938 246.957031 674.816406 246.566406 C 689.351562 242.652344 703.886719 242.652344 718.816406 243.042969 C 724.316406 243.042969 729.816406 244.21875 735.316406 244.609375 C 739.636719 244.609375 743.960938 243.433594 747.886719 243.042969 Z M 747.886719 243.042969"/></g><path fill="#DDDBDA" d="M 152.316406 286.085938 C 143.28125 284.910156 133.851562 283.738281 124.816406 282.171875 C 115.78125 280.605469 110.28125 270.824219 111.851562 260.652344 C 112.246094 257.519531 114.601562 255.566406 116.960938 254.78125 C 120.496094 254 124.421875 254 127.960938 254.78125 C 138.960938 256.347656 149.960938 258.695312 160.960938 260.261719 C 168.421875 261.433594 175.886719 261.433594 182.960938 262.214844 C 188.460938 263 191.601562 270.824219 188.066406 275.128906 C 185.710938 277.867188 182.960938 281 179.816406 282.171875 C 171.171875 285.300781 161.746094 286.476562 152.316406 286.085938 Z M 152.316406 286.085938"/><path fill="#DDDBDA" d="M 1335.601562 262.214844 C 1343.066406 262.609375 1350.53125 262.609375 1357.996094 263.390625 C 1367.421875 264.171875 1373.316406 274.347656 1369.386719 284.128906 C 1368.601562 286.476562 1365.851562 288.433594 1363.496094 289.605469 C 1361.921875 290.390625 1359.960938 290.78125 1357.996094 290.78125 C 1343.851562 290.78125 1330.101562 290.78125 1315.960938 290.390625 C 1312.421875 290.390625 1308.496094 289.214844 1304.960938 288.042969 C 1299.460938 286.476562 1295.136719 277.867188 1297.101562 272 C 1298.28125 268.085938 1303.386719 263.78125 1307.316406 263.78125 C 1316.746094 263.78125 1325.78125 263.78125 1335.210938 263.78125 C 1335.601562 263 1335.601562 262.609375 1335.601562 262.214844 Z M 1335.601562 262.214844"/><path fill="#DDDBDA" d="M 1896.601562 303.691406 C 1886.386719 303.300781 1876.171875 302.910156 1865.960938 302.519531 C 1860.851562 302.128906 1857.316406 295.085938 1858.886719 289.605469 C 1860.851562 283.738281 1863.996094 279.824219 1870.28125 279.042969 C 1876.566406 278.257812 1883.246094 277.476562 1889.53125 277.476562 C 1901.710938 277.867188 1913.496094 279.042969 1925.671875 277.085938 C 1927.636719 276.695312 1930.78125 279.042969 1932.351562 281 C 1936.671875 286.867188 1935.886719 293.128906 1933.921875 299.386719 C 1933.53125 300.953125 1931.566406 302.519531 1929.996094 302.519531 C 1925.28125 303.300781 1920.960938 304.082031 1916.246094 304.082031 C 1909.566406 304.476562 1903.28125 303.691406 1896.601562 303.691406 Z M 1896.601562 303.691406"/><path fill="#DDDBDA" d="M 1726.496094 298.214844 C 1715.886719 297.433594 1707.246094 297.039062 1698.996094 295.476562 C 1693.496094 294.691406 1688.386719 292.34375 1683.28125 289.996094 C 1680.136719 288.433594 1678.171875 284.910156 1678.566406 280.605469 C 1678.566406 277.476562 1682.101562 272.390625 1684.460938 272 C 1687.210938 271.214844 1689.960938 270.433594 1692.710938 270.433594 C 1705.671875 269.257812 1718.636719 271.214844 1731.601562 268.867188 C 1741.816406 267.304688 1749.671875 275.128906 1749.671875 288.433594 C 1749.671875 291.171875 1745.746094 296.648438 1743.386719 296.648438 C 1737.101562 297.433594 1730.421875 297.824219 1726.496094 298.214844 Z M 1726.496094 298.214844"/><path fill="#DDDBDA" d="M 483.101562 252.824219 C 493.316406 252.824219 503.53125 252.433594 513.351562 252.824219 C 519.246094 252.824219 523.960938 259.085938 524.746094 266.128906 C 525.136719 268.476562 522.78125 272.390625 520.816406 272.78125 C 518.066406 273.171875 515.316406 274.347656 512.960938 274.347656 C 498.03125 274.738281 483.496094 274.738281 468.566406 274.738281 C 463.066406 274.738281 457.566406 273.953125 452.066406 273.171875 C 449.316406 272.78125 446.960938 271.214844 444.601562 270.042969 C 442.636719 268.867188 440.28125 262.609375 441.460938 260.261719 C 442.636719 257.914062 444.601562 255.171875 446.960938 254.78125 C 452.460938 253.609375 457.960938 253.21875 463.460938 252.824219 C 469.746094 252.433594 476.421875 252.824219 482.710938 252.824219 C 483.101562 252.824219 483.101562 252.824219 483.101562 252.824219 Z M 483.101562 252.824219"/><path fill="#DDDBDA" d="M 1140.746094 252.824219 C 1142.316406 253.21875 1145.851562 253.609375 1149.386719 254.390625 C 1152.53125 255.171875 1156.066406 261.433594 1156.066406 265.738281 C 1156.066406 268.476562 1152.136719 273.5625 1149.78125 273.953125 C 1132.496094 276.695312 1115.996094 282.953125 1097.921875 280.605469 C 1092.421875 279.824219 1087.316406 278.257812 1082.601562 274.738281 C 1079.066406 272.390625 1076.710938 267.304688 1078.671875 262.609375 C 1079.460938 260.261719 1082.210938 257.128906 1083.78125 257.128906 C 1102.246094 258.304688 1120.316406 253.21875 1140.746094 252.824219 Z M 1140.746094 252.824219"/><path fill="#DDDBDA" d="M 896.386719 270.433594 C 890.101562 271.214844 883.816406 272.390625 877.136719 272.78125 C 873.601562 273.171875 869.671875 272 866.136719 271.214844 C 861.03125 269.652344 857.496094 263.78125 858.28125 257.914062 C 859.066406 253.609375 862.996094 248.914062 866.921875 248.128906 C 885.386719 244.609375 903.851562 244.609375 922.316406 248.128906 C 926.246094 248.914062 930.566406 254 930.566406 258.304688 C 930.566406 263.78125 926.246094 270.433594 921.136719 270.433594 C 913.28125 270.433594 905.03125 270.433594 896.386719 270.433594 Z M 896.386719 270.433594"/><path fill="#DDDBDA" d="M 286.28125 282.171875 C 278.816406 281.390625 270.171875 281 261.921875 279.824219 C 255.636719 279.042969 251.316406 272.390625 251.710938 265.347656 C 252.101562 260.652344 255.636719 255.957031 259.566406 254.78125 C 273.316406 252.042969 287.460938 252.042969 301.210938 254 C 303.566406 254.390625 305.921875 256.738281 307.886719 258.695312 C 312.996094 263.78125 313.78125 270.042969 312.210938 276.695312 C 311.816406 278.257812 310.246094 280.214844 308.671875 280.605469 C 301.996094 281.390625 294.53125 281.78125 286.28125 282.171875 Z M 286.28125 282.171875"/><path fill="#DDDBDA" d="M 1551.671875 289.996094 C 1548.53125 289.214844 1539.496094 287.648438 1530.460938 286.085938 C 1527.710938 285.695312 1524.960938 281 1524.566406 277.476562 C 1524.171875 272.78125 1527.316406 268.867188 1532.03125 267.304688 C 1543.816406 263 1555.996094 265.347656 1567.78125 266.519531 C 1572.886719 266.910156 1577.996094 273.953125 1579.171875 280.605469 C 1579.960938 284.910156 1575.246094 290.390625 1571.710938 290.390625 C 1570.921875 290.390625 1569.746094 290.78125 1568.960938 290.78125 C 1565.03125 290.78125 1561.496094 290.78125 1551.671875 289.996094 Z M 1551.671875 289.996094"/><g><g><g><path d="M 26.28125 -126.953125 L 60.609375 -30.9375 L 94.578125 -126.953125 L 120.515625 -126.953125 L 70.984375 0 L 50.234375 0 L 0.359375 -126.953125 Z M 26.28125 -126.953125" transform="translate(152.52 226.933)"/></g></g></g><g><g><g><path d="M 101.375 -21.640625 L 101.375 0 L 13.234375 0 L 13.234375 -126.953125 L 99.765625 -126.953125 L 99.765625 -105.3125 L 37.90625 -105.3125 L 37.90625 -74.734375 L 91.359375 -74.734375 L 91.359375 -54.71875 L 37.90625 -54.71875 L 37.90625 -21.640625 Z M 101.375 -21.640625" transform="translate(273.353 226.933)"/></g></g></g><g><g><g><path d="M 13.234375 0 L 13.234375 -126.953125 L 69.375 -126.953125 C 75.21875 -126.953125 80.609375 -125.726562 85.546875 -123.28125 C 90.492188 -120.832031 94.753906 -117.613281 98.328125 -113.625 C 101.910156 -109.632812 104.710938 -105.101562 106.734375 -100.03125 C 108.765625 -94.96875 109.78125 -89.875 109.78125 -84.75 C 109.78125 -76.519531 107.722656 -69.035156 103.609375 -62.296875 C 99.492188 -55.566406 93.921875 -50.710938 86.890625 -47.734375 L 115.859375 0 L 88.140625 0 L 62.21875 -42.546875 L 37.90625 -42.546875 L 37.90625 0 Z M 37.90625 -64.1875 L 68.84375 -64.1875 C 71.101562 -64.1875 73.21875 -64.722656 75.1875 -65.796875 C 77.15625 -66.867188 78.851562 -68.328125 80.28125 -70.171875 C 81.707031 -72.023438 82.835938 -74.203125 83.671875 -76.703125 C 84.503906 -79.203125 84.921875 -81.882812 84.921875 -84.75 C 84.921875 -87.726562 84.441406 -90.46875 83.484375 -92.96875 C 82.535156 -95.476562 81.253906 -97.65625 79.640625 -99.5 C 78.035156 -101.34375 76.191406 -102.769531 74.109375 -103.78125 C 72.023438 -104.800781 69.910156 -105.3125 67.765625 -105.3125 L 37.90625 -105.3125 Z M 37.90625 -64.1875" transform="translate(380.78 226.933)"/></g></g></g><g><g><g><path d="M 67.40625 0.890625 C 58.101562 0.890625 49.664062 -0.925781 42.09375 -4.5625 C 34.53125 -8.195312 28.035156 -13.023438 22.609375 -19.046875 C 17.191406 -25.066406 12.992188 -31.945312 10.015625 -39.6875 C 7.035156 -47.4375 5.546875 -55.363281 5.546875 -63.46875 C 5.546875 -71.9375 7.125 -80.039062 10.28125 -87.78125 C 13.4375 -95.53125 17.785156 -102.382812 23.328125 -108.34375 C 28.867188 -114.3125 35.453125 -119.050781 43.078125 -122.5625 C 50.710938 -126.082031 59 -127.84375 67.9375 -127.84375 C 77.113281 -127.84375 85.488281 -125.960938 93.0625 -122.203125 C 100.632812 -118.453125 107.101562 -113.535156 112.46875 -107.453125 C 117.832031 -101.378906 122.003906 -94.46875 124.984375 -86.71875 C 127.960938 -78.96875 129.453125 -71.097656 129.453125 -63.109375 C 129.453125 -54.648438 127.898438 -46.578125 124.796875 -38.890625 C 121.703125 -31.203125 117.410156 -24.40625 111.921875 -18.5 C 106.441406 -12.601562 99.882812 -7.894531 92.25 -4.375 C 84.625 -0.863281 76.34375 0.890625 67.40625 0.890625 Z M 30.578125 -63.46875 C 30.578125 -57.988281 31.410156 -52.6875 33.078125 -47.5625 C 34.742188 -42.4375 37.15625 -37.90625 40.3125 -33.96875 C 43.476562 -30.039062 47.351562 -26.882812 51.9375 -24.5 C 56.53125 -22.113281 61.742188 -20.921875 67.578125 -20.921875 C 73.546875 -20.921875 78.820312 -22.140625 83.40625 -24.578125 C 88 -27.023438 91.875 -30.273438 95.03125 -34.328125 C 98.1875 -38.378906 100.566406 -42.9375 102.171875 -48 C 103.785156 -53.070312 104.59375 -58.226562 104.59375 -63.46875 C 104.59375 -68.957031 103.726562 -74.265625 102 -79.390625 C 100.269531 -84.515625 97.828125 -89.039062 94.671875 -92.96875 C 91.515625 -96.90625 87.640625 -100.035156 83.046875 -102.359375 C 78.460938 -104.679688 73.304688 -105.84375 67.578125 -105.84375 C 61.617188 -105.84375 56.316406 -104.617188 51.671875 -102.171875 C 47.023438 -99.734375 43.148438 -96.515625 40.046875 -92.515625 C 36.953125 -88.523438 34.597656 -84 32.984375 -78.9375 C 31.378906 -73.875 30.578125 -68.71875 30.578125 -63.46875 Z M 30.578125 -63.46875" transform="translate(499.645 226.933)"/></g></g></g><g><g><g><path d="M 37.90625 -81.359375 L 37.90625 0 L 13.234375 0 L 13.234375 -126.953125 L 32.359375 -126.953125 L 98.515625 -43.625 L 98.515625 -126.765625 L 123.1875 -126.765625 L 123.1875 0 L 103.171875 0 Z M 37.90625 -81.359375" transform="translate(634.777 226.933)"/></g></g></g><g><g><g><path d="M 13.234375 0 L 13.234375 -126.953125 L 37.90625 -126.953125 L 37.90625 0 Z M 13.234375 0" transform="translate(771.16 226.933)"/></g></g></g><g><g><g><path d="M 13.234375 0 L 13.234375 -126.765625 L 37.90625 -126.765625 L 37.90625 -66.515625 L 91.1875 -126.953125 L 118.359375 -126.953125 L 69.734375 -70.625 L 121.40625 0 L 93.6875 0 L 54.171875 -54.890625 L 37.90625 -37.90625 L 37.90625 0 Z M 13.234375 0" transform="translate(822.282 226.933)"/></g></g></g><g><g><g><path d="M 49.34375 -126.953125 L 71.15625 -126.953125 L 119.4375 0 L 94.046875 0 L 82.25 -31.640625 L 37.90625 -31.640625 L 26.28125 0 L 0.890625 0 Z M 77.78125 -48.984375 L 60.25 -98.875 L 42.015625 -48.984375 Z M 77.78125 -48.984375" transform="translate(941.863 226.933)"/></g></g></g><g><g><g><path d="M 13.234375 0 L 13.234375 -126.765625 L 37.90625 -126.765625 L 37.90625 -66.515625 L 91.1875 -126.953125 L 118.359375 -126.953125 L 69.734375 -70.625 L 121.40625 0 L 93.6875 0 L 54.171875 -54.890625 L 37.90625 -37.90625 L 37.90625 0 Z M 13.234375 0" transform="translate(1104.88 226.933)"/></g></g></g><g><g><g><path d="M 13.234375 0 L 13.234375 -126.953125 L 69.375 -126.953125 C 75.21875 -126.953125 80.609375 -125.726562 85.546875 -123.28125 C 90.492188 -120.832031 94.753906 -117.613281 98.328125 -113.625 C 101.910156 -109.632812 104.710938 -105.101562 106.734375 -100.03125 C 108.765625 -94.96875 109.78125 -89.875 109.78125 -84.75 C 109.78125 -76.519531 107.722656 -69.035156 103.609375 -62.296875 C 99.492188 -55.566406 93.921875 -50.710938 86.890625 -47.734375 L 115.859375 0 L 88.140625 0 L 62.21875 -42.546875 L 37.90625 -42.546875 L 37.90625 0 Z M 37.90625 -64.1875 L 68.84375 -64.1875 C 71.101562 -64.1875 73.21875 -64.722656 75.1875 -65.796875 C 77.15625 -66.867188 78.851562 -68.328125 80.28125 -70.171875 C 81.707031 -72.023438 82.835938 -74.203125 83.671875 -76.703125 C 84.503906 -79.203125 84.921875 -81.882812 84.921875 -84.75 C 84.921875 -87.726562 84.441406 -90.46875 83.484375 -92.96875 C 82.535156 -95.476562 81.253906 -97.65625 79.640625 -99.5 C 78.035156 -101.34375 76.191406 -102.769531 74.109375 -103.78125 C 72.023438 -104.800781 69.910156 -105.3125 67.765625 -105.3125 L 37.90625 -105.3125 Z M 37.90625 -64.1875" transform="translate(1224.46 226.933)"/></g></g></g><g><g><g><path d="M 49.34375 -126.953125 L 71.15625 -126.953125 L 119.4375 0 L 94.046875 0 L 82.25 -31.640625 L 37.90625 -31.640625 L 26.28125 0 L 0.890625 0 Z M 77.78125 -48.984375 L 60.25 -98.875 L 42.015625 -48.984375 Z M 77.78125 -48.984375" transform="translate(1343.326 226.933)"/></g></g></g><g><g><g><path d="M 6.796875 -25.921875 C 8.460938 -24.734375 11.257812 -23.421875 15.1875 -21.984375 C 19.125 -20.554688 23.65625 -19.84375 28.78125 -19.84375 C 33.789062 -19.84375 37.785156 -20.707031 40.765625 -22.4375 C 43.742188 -24.164062 46.007812 -26.816406 47.5625 -30.390625 C 49.113281 -33.972656 50.125 -38.414062 50.59375 -43.71875 C 51.070312 -49.019531 51.3125 -55.25 51.3125 -62.40625 L 51.3125 -126.953125 L 75.984375 -126.953125 L 75.984375 -62.40625 C 75.984375 -52.75 75.476562 -43.957031 74.46875 -36.03125 C 73.457031 -28.101562 71.3125 -21.335938 68.03125 -15.734375 C 64.75 -10.128906 60.007812 -5.773438 53.8125 -2.671875 C 47.613281 0.421875 39.269531 1.96875 28.78125 1.96875 C 18.050781 1.96875 8.875 -0.65625 1.25 -5.90625 Z M 6.796875 -25.921875" transform="translate(1463.444 226.933)"/></g></g></g><g><g><g><path d="M 53.640625 -163.59375 L 68.84375 -152.328125 L 84.03125 -163.59375 L 96.375 -157.875 L 77.421875 -139.8125 L 60.078125 -139.8125 L 41.125 -157.875 Z M 5.546875 -64.359375 C 5.546875 -72.109375 6.945312 -79.769531 9.75 -87.34375 C 12.550781 -94.914062 16.628906 -101.679688 21.984375 -107.640625 C 27.347656 -113.597656 33.90625 -118.421875 41.65625 -122.109375 C 49.40625 -125.804688 58.226562 -127.65625 68.125 -127.65625 C 79.800781 -127.65625 89.898438 -125.09375 98.421875 -119.96875 C 106.953125 -114.84375 113.300781 -108.171875 117.46875 -99.953125 L 98.515625 -86.890625 C 96.847656 -90.472656 94.820312 -93.484375 92.4375 -95.921875 C 90.050781 -98.367188 87.488281 -100.304688 84.75 -101.734375 C 82.007812 -103.160156 79.148438 -104.203125 76.171875 -104.859375 C 73.191406 -105.515625 70.269531 -105.84375 67.40625 -105.84375 C 61.207031 -105.84375 55.8125 -104.59375 51.21875 -102.09375 C 46.632812 -99.59375 42.820312 -96.34375 39.78125 -92.34375 C 36.738281 -88.351562 34.441406 -83.820312 32.890625 -78.75 C 31.347656 -73.6875 30.578125 -68.65625 30.578125 -63.65625 C 30.578125 -58.050781 31.46875 -52.65625 33.25 -47.46875 C 35.039062 -42.28125 37.570312 -37.71875 40.84375 -33.78125 C 44.125 -29.851562 48.0625 -26.695312 52.65625 -24.3125 C 57.25 -21.925781 62.285156 -20.734375 67.765625 -20.734375 C 70.628906 -20.734375 73.609375 -21.09375 76.703125 -21.8125 C 79.804688 -22.53125 82.753906 -23.660156 85.546875 -25.203125 C 88.347656 -26.753906 90.941406 -28.75 93.328125 -31.1875 C 95.710938 -33.632812 97.617188 -36.585938 99.046875 -40.046875 L 119.25 -28.421875 C 117.226562 -23.660156 114.335938 -19.460938 110.578125 -15.828125 C 106.828125 -12.191406 102.597656 -9.117188 97.890625 -6.609375 C 93.179688 -4.109375 88.144531 -2.203125 82.78125 -0.890625 C 77.414062 0.421875 72.171875 1.078125 67.046875 1.078125 C 57.984375 1.078125 49.695312 -0.828125 42.1875 -4.640625 C 34.6875 -8.460938 28.222656 -13.441406 22.796875 -19.578125 C 17.367188 -25.710938 13.132812 -32.679688 10.09375 -40.484375 C 7.0625 -48.296875 5.546875 -56.253906 5.546875 -64.359375 Z M 5.546875 -64.359375" transform="translate(1551.208 226.933)"/></g></g></g><g><g><g><path d="M 67.40625 0.890625 C 58.101562 0.890625 49.664062 -0.925781 42.09375 -4.5625 C 34.53125 -8.195312 28.035156 -13.023438 22.609375 -19.046875 C 17.191406 -25.066406 12.992188 -31.945312 10.015625 -39.6875 C 7.035156 -47.4375 5.546875 -55.363281 5.546875 -63.46875 C 5.546875 -71.9375 7.125 -80.039062 10.28125 -87.78125 C 13.4375 -95.53125 17.785156 -102.382812 23.328125 -108.34375 C 28.867188 -114.3125 35.453125 -119.050781 43.078125 -122.5625 C 50.710938 -126.082031 59 -127.84375 67.9375 -127.84375 C 77.113281 -127.84375 85.488281 -125.960938 93.0625 -122.203125 C 100.632812 -118.453125 107.101562 -113.535156 112.46875 -107.453125 C 117.832031 -101.378906 122.003906 -94.46875 124.984375 -86.71875 C 127.960938 -78.96875 129.453125 -71.097656 129.453125 -63.109375 C 129.453125 -54.648438 127.898438 -46.578125 124.796875 -38.890625 C 121.703125 -31.203125 117.410156 -24.40625 111.921875 -18.5 C 106.441406 -12.601562 99.882812 -7.894531 92.25 -4.375 C 84.625 -0.863281 76.34375 0.890625 67.40625 0.890625 Z M 30.578125 -63.46875 C 30.578125 -57.988281 31.410156 -52.6875 33.078125 -47.5625 C 34.742188 -42.4375 37.15625 -37.90625 40.3125 -33.96875 C 43.476562 -30.039062 47.351562 -26.882812 51.9375 -24.5 C 56.53125 -22.113281 61.742188 -20.921875 67.578125 -20.921875 C 73.546875 -20.921875 78.820312 -22.140625 83.40625 -24.578125 C 88 -27.023438 91.875 -30.273438 95.03125 -34.328125 C 98.1875 -38.378906 100.566406 -42.9375 102.171875 -48 C 103.785156 -53.070312 104.59375 -58.226562 104.59375 -63.46875 C 104.59375 -68.957031 103.726562 -74.265625 102 -79.390625 C 100.269531 -84.515625 97.828125 -89.039062 94.671875 -92.96875 C 91.515625 -96.90625 87.640625 -100.035156 83.046875 -102.359375 C 78.460938 -104.679688 73.304688 -105.84375 67.578125 -105.84375 C 61.617188 -105.84375 56.316406 -104.617188 51.671875 -102.171875 C 47.023438 -99.734375 43.148438 -96.515625 40.046875 -92.515625 C 36.953125 -88.523438 34.597656 -84 32.984375 -78.9375 C 31.378906 -73.875 30.578125 -68.71875 30.578125 -63.46875 Z M 30.578125 -63.46875" transform="translate(1673.828 226.933)"/></g></g></g><g><g><g><path d="M 26.28125 -126.953125 L 60.609375 -30.9375 L 94.578125 -126.953125 L 120.515625 -126.953125 L 70.984375 0 L 50.234375 0 L 0.359375 -126.953125 Z M 26.28125 -126.953125" transform="translate(1808.96 226.933)"/></g></g></g><g><g><g><path d="M 49.34375 -126.953125 L 71.15625 -126.953125 L 119.4375 0 L 94.046875 0 L 82.25 -31.640625 L 37.90625 -31.640625 L 26.28125 0 L 0.890625 0 Z M 77.78125 -48.984375 L 60.25 -98.875 L 42.015625 -48.984375 Z M 66.515625 -137.671875 L 51.140625 -142.328125 L 60.796875 -163.59375 L 83.140625 -163.59375 Z M 66.515625 -137.671875" transform="translate(1929.792 226.933)"/></g></g></g></svg>