<svg xmlns="http://www.w3.org/2000/svg" width="2250" viewBox="0 0 2250 2250" height="2250" version="1.0"><path fill="#DDDBDA" d="M 1756.332031 1165.773438 L 1754.054688 1196.835938 C 1754.105469 1201.546875 1753.746094 1206.226562 1752.984375 1210.875 C 1752.21875 1215.519531 1751.058594 1220.066406 1749.503906 1224.515625 C 1747.953125 1228.960938 1746.023438 1233.238281 1743.726562 1237.347656 C 1741.425781 1241.460938 1738.792969 1245.339844 1735.816406 1248.992188 C 1732.492188 1251.5 1728.988281 1253.726562 1725.304688 1255.671875 C 1721.621094 1257.613281 1717.808594 1259.253906 1713.863281 1260.585938 C 1709.917969 1261.917969 1705.890625 1262.925781 1701.78125 1263.609375 C 1697.675781 1264.292969 1693.539062 1264.648438 1689.375 1264.667969 C 1566.789062 1277.75 1443.886719 1286.101562 1320.660156 1289.714844 C 1197.433594 1293.332031 1074.25 1292.199219 951.109375 1286.328125 C 827.734375 1282.050781 704.359375 1274.640625 580.699219 1266.664062 C 482.679688 1260.105469 369.847656 1282.050781 334.230469 1166.34375 C 331.453125 1155.625 329.230469 1144.792969 327.570312 1133.84375 C 325.910156 1122.898438 324.816406 1111.894531 324.289062 1100.832031 C 323.761719 1089.773438 323.804688 1078.714844 324.417969 1067.660156 C 325.035156 1056.601562 326.214844 1045.609375 327.960938 1034.675781 C 328.050781 1030.714844 328.429688 1026.78125 329.097656 1022.875 C 329.765625 1018.972656 330.714844 1015.136719 331.945312 1011.371094 C 333.175781 1007.605469 334.675781 1003.953125 336.445312 1000.40625 C 338.210938 996.859375 340.226562 993.464844 342.492188 990.214844 C 344.6875 988.273438 346.972656 986.445312 349.355469 984.738281 C 351.738281 983.03125 354.199219 981.449219 356.742188 979.996094 C 359.285156 978.539062 361.898438 977.21875 364.578125 976.035156 C 367.257812 974.847656 369.992188 973.804688 372.777344 972.898438 C 375.566406 971.992188 378.390625 971.234375 381.257812 970.621094 C 384.121094 970.003906 387.011719 969.539062 389.921875 969.222656 C 392.835938 968.90625 395.757812 968.738281 398.6875 968.722656 C 401.617188 968.707031 404.542969 968.839844 407.457031 969.125 C 802.089844 953.449219 1197.292969 962.570312 1592.210938 971.691406 C 1601.3125 971.09375 1610.414062 971.113281 1619.511719 971.746094 C 1628.613281 972.378906 1637.625 973.625 1646.558594 975.480469 C 1655.488281 977.332031 1664.253906 979.78125 1672.851562 982.820312 C 1681.453125 985.859375 1689.808594 989.464844 1697.921875 993.636719 C 1752.058594 1028.40625 1759.753906 1099.367188 1756.332031 1165.773438 Z M 1756.332031 1165.773438"/></svg>